<?xml version="1.0" encoding="UTF-8" standalone="no"?>
<!-- Created with Inkscape (http://www.inkscape.org/) -->

<svg
   width="15.875mm"
   height="15.875mm"
   viewBox="0 0 15.875 15.875"
   version="1.1"
   id="svg1"
   inkscape:version="1.4.1-rc (d9e8dc1fe0, 2025-03-10)"
   sodipodi:docname="desing.svg"
   xmlns:inkscape="http://www.inkscape.org/namespaces/inkscape"
   xmlns:sodipodi="http://sodipodi.sourceforge.net/DTD/sodipodi-0.dtd"
   xmlns="http://www.w3.org/2000/svg"
   xmlns:svg="http://www.w3.org/2000/svg">
  <sodipodi:namedview
     id="namedview1"
     pagecolor="#ffffff"
     bordercolor="#000000"
     borderopacity="0.25"
     inkscape:showpageshadow="2"
     inkscape:pageopacity="0.0"
     inkscape:pagecheckerboard="0"
     inkscape:deskcolor="#d1d1d1"
     inkscape:document-units="mm"
     inkscape:zoom="0.66368547"
     inkscape:cx="12.053903"
     inkscape:cy="217.72362"
     inkscape:window-width="1033"
     inkscape:window-height="953"
     inkscape:window-x="150"
     inkscape:window-y="32"
     inkscape:window-maximized="0"
     inkscape:current-layer="layer1" />
  <defs
     id="defs1" />
  <g
     inkscape:label="Layer 1"
     inkscape:groupmode="layer"
     id="layer1"
     transform="translate(-101.6,-91.01667)">
    <rect
       x="101.6"
       y="91.01667"
       width="15.875"
       height="15.875"
       fill="#f6f6f6"
       id="rect1"
       style="stroke-width:0.264583" />
    <path
       d="m 106.91847,94.465267 c -1.23669,0 -2.24174,1.00783 -2.24174,2.24449 v 4.488973 c 0,1.23669 1.00505,2.24449 2.24174,2.24449 h 5.23713 c 1.23667,0 2.24174,-1.0078 2.24174,-2.24449 v -4.488973 c 0,-1.23666 -1.00507,-2.24449 -2.24174,-2.24449 z m 0,0.74816 h 5.23713 c 0.83524,0 1.49633,0.66109 1.49633,1.49633 v 4.488973 c 0,0.83524 -0.66109,1.49633 -1.49633,1.49633 h -5.23713 c -0.83524,0 -1.49633,-0.66109 -1.49633,-1.49633 v -4.488973 c 0,-0.83524 0.66109,-1.49633 1.49633,-1.49633 z"
       fill="#303030"
       id="path1"
       style="stroke-width:0.264583" />
    <path
       d="m 105.04945,96.709757 c -0.0992,0 -0.19436,0.0394 -0.26453,0.10956 -0.0701,0.0702 -0.10956,0.16531 -0.10956,0.26453 0,0.0992 0.0394,0.19437 0.10956,0.26451 0.0702,0.0702 0.16531,0.10956 0.26453,0.10956 h 8.9752 c 0.0992,0 0.19436,-0.0394 0.2645,-0.10956 0.0702,-0.0701 0.10957,-0.16531 0.10957,-0.26451 0,-0.0992 -0.0394,-0.19436 -0.10957,-0.26453 -0.0701,-0.0701 -0.16531,-0.10956 -0.2645,-0.10956 z m 7.0675,-1.12086 c -0.0992,0.005 -0.1923,0.0495 -0.25882,0.12325 -0.0665,0.0738 -0.10101,0.17094 -0.0959,0.27016 0.005,0.0992 0.0494,0.1923 0.12324,0.25885 0.0738,0.0665 0.17095,0.10101 0.27014,0.0959 h 0.37272 c 0.0491,0 0.0978,-0.01 0.14314,-0.0285 0.0454,-0.0188 0.0866,-0.0464 0.12137,-0.0811 0.0347,-0.0347 0.0623,-0.076 0.0811,-0.12136 0.0188,-0.0454 0.0285,-0.094 0.0285,-0.14317 0,-0.0491 -0.01,-0.0978 -0.0285,-0.14314 -0.0188,-0.0454 -0.0464,-0.0866 -0.0811,-0.12136 -0.0347,-0.0347 -0.076,-0.0623 -0.12137,-0.0811 -0.0454,-0.0188 -0.094,-0.0285 -0.14314,-0.0285 h -0.37272 c -0.0129,-6.6e-4 -0.0258,-6.6e-4 -0.0386,0 z m -1.86902,0 c -0.0992,0.005 -0.19246,0.0487 -0.25926,0.12224 -0.0668,0.0735 -0.10163,0.17058 -0.0969,0.26977 0.005,0.0992 0.0487,0.19249 0.12224,0.25927 0.0735,0.0668 0.17058,0.10165 0.2698,0.0969 h 0.37544 c 0.0491,0 0.0978,-0.01 0.14317,-0.0285 0.0454,-0.0188 0.0866,-0.0464 0.12136,-0.0811 0.0347,-0.0347 0.0623,-0.076 0.0811,-0.12136 0.0188,-0.0454 0.0285,-0.094 0.0285,-0.14317 0,-0.0491 -0.01,-0.0978 -0.0285,-0.14314 -0.0188,-0.0454 -0.0463,-0.0866 -0.0811,-0.12136 -0.0347,-0.0347 -0.076,-0.0623 -0.12136,-0.0811 -0.0454,-0.0188 -0.094,-0.0285 -0.14317,-0.0285 h -0.37544 c -0.012,-5.8e-4 -0.0239,-5.8e-4 -0.0359,0 z"
       fill="#303030"
       id="path2"
       style="stroke-width:0.264583" />
    <path
       d="m 108.40929,96.704227 c -0.0491,9e-4 -0.0976,0.0115 -0.14266,0.0311 -0.045,0.0196 -0.0858,0.0479 -0.11989,0.0833 -0.0341,0.0354 -0.0609,0.0771 -0.0788,0.12287 -0.018,0.0457 -0.0267,0.0946 -0.0258,0.1437 v 5.982553 c 0,0.0491 0.01,0.0978 0.0285,0.14314 0.0188,0.0454 0.0464,0.0866 0.0811,0.12136 0.0347,0.0347 0.076,0.0623 0.12137,0.0811 0.0454,0.0188 0.094,0.0285 0.14314,0.0285 0.0491,0 0.0978,-0.01 0.14316,-0.0285 0.0454,-0.0188 0.0866,-0.0464 0.12137,-0.0811 0.0347,-0.0347 0.0623,-0.076 0.0811,-0.12136 0.0188,-0.0454 0.0285,-0.094 0.0285,-0.14314 v -5.982553 c 9.6e-4,-0.0503 -0.008,-0.10025 -0.0271,-0.14692 -0.0188,-0.0466 -0.0469,-0.089 -0.0824,-0.1246 -0.0356,-0.0356 -0.078,-0.0636 -0.12459,-0.0824 -0.0466,-0.0188 -0.0966,-0.028 -0.1469,-0.0271 z"
       fill="#303030"
       id="path3"
       style="stroke-width:0.264583" />
    <path
       d="m 108.41479,100.45057 h 5.60986 c 0.49876,0 0.49876,-0.748163 0,-0.748163 h -5.60986 z"
       fill="#303030"
       id="path4"
       style="stroke-width:0.264583" />
    <path
       d="m 111.21419,96.704227 c -0.0491,9e-4 -0.0976,0.0115 -0.14264,0.0311 -0.0451,0.0196 -0.0858,0.0479 -0.11988,0.0833 -0.0341,0.0354 -0.0609,0.0771 -0.0789,0.12287 -0.0179,0.0457 -0.0267,0.0946 -0.0258,0.1437 v 2.989903 c 0,0.0992 0.0394,0.19436 0.10957,0.2645 0.0702,0.0701 0.16531,0.10956 0.26453,0.10956 0.0992,0 0.19436,-0.0394 0.2645,-0.10956 0.0702,-0.0701 0.10956,-0.16531 0.10956,-0.2645 v -2.989903 c 9.6e-4,-0.0503 -0.008,-0.10025 -0.0271,-0.14692 -0.0188,-0.0466 -0.0468,-0.089 -0.0824,-0.1246 -0.0356,-0.0356 -0.078,-0.0636 -0.12459,-0.0824 -0.0466,-0.0188 -0.0966,-0.028 -0.1469,-0.0271 z m -4.66844,1.50185 c -0.0992,0 -0.19434,0.0394 -0.2645,0.10957 -0.0701,0.0702 -0.10957,0.16531 -0.10957,0.26453 0,0.0992 0.0394,0.19436 0.10957,0.2645 0.0702,0.0702 0.16531,0.10957 0.2645,0.10957 h 0.37272 c 0.0992,0 0.19436,-0.0394 0.2645,-0.10957 0.0702,-0.0701 0.10957,-0.16531 0.10957,-0.2645 0,-0.0992 -0.0394,-0.19436 -0.10957,-0.26453 -0.0701,-0.0701 -0.16528,-0.10957 -0.2645,-0.10957 z m -0.0386,1.49633 c -0.0992,0.005 -0.19232,0.0495 -0.25884,0.12324 -0.0665,0.0738 -0.10102,0.17095 -0.0959,0.270173 0.005,0.0992 0.0495,0.19232 0.12322,0.25884 0.0738,0.0665 0.17095,0.10104 0.27014,0.0959 h 0.37272 c 0.0992,0 0.19436,-0.0394 0.2645,-0.10956 0.0702,-0.0701 0.10957,-0.16532 0.10957,-0.26451 0,-0.0992 -0.0394,-0.194363 -0.10957,-0.264533 -0.0701,-0.0701 -0.16528,-0.10956 -0.2645,-0.10956 h -0.37272 c -0.0129,-6.6e-4 -0.0258,-6.6e-4 -0.0386,0 z m 0,1.496323 c -0.0992,0.005 -0.19232,0.0495 -0.25884,0.12325 -0.0665,0.0738 -0.10102,0.17097 -0.0959,0.27016 0.005,0.0992 0.0495,0.19233 0.12322,0.25884 0.0738,0.0666 0.17095,0.10105 0.27014,0.0959 h 0.37272 c 0.0992,0 0.19436,-0.0394 0.2645,-0.10956 0.0702,-0.0701 0.10957,-0.16528 0.10957,-0.2645 0,-0.0992 -0.0394,-0.19437 -0.10957,-0.26453 -0.0701,-0.0701 -0.16528,-0.10957 -0.2645,-0.10957 h -0.37272 c -0.0129,-6.6e-4 -0.0258,-6.6e-4 -0.0386,0 z m 0,-5.609833 c -0.0992,0.005 -0.19232,0.0495 -0.25884,0.12325 -0.0665,0.0738 -0.10102,0.17094 -0.0959,0.27016 0.005,0.0992 0.0495,0.1923 0.12322,0.25885 0.0738,0.0665 0.17095,0.10101 0.27014,0.0959 h 0.37272 c 0.0491,0 0.0978,-0.01 0.14314,-0.0285 0.0454,-0.0188 0.0866,-0.0464 0.12136,-0.0811 0.0347,-0.0347 0.0623,-0.076 0.0811,-0.12136 0.0188,-0.0454 0.0285,-0.094 0.0285,-0.14317 0,-0.0491 -0.01,-0.0978 -0.0285,-0.14314 -0.0188,-0.0454 -0.0464,-0.0866 -0.0811,-0.12136 -0.0347,-0.0347 -0.076,-0.0623 -0.12136,-0.0811 -0.0454,-0.0188 -0.094,-0.0285 -0.14314,-0.0285 h -0.37272 c -0.0129,-6.6e-4 -0.0258,-6.6e-4 -0.0386,0 z"
       fill="#303030"
       id="path5"
       style="stroke-width:0.264583" />
  </g>
</svg>
