<?xml version="1.0" encoding="UTF-8" standalone="no"?>
<!-- Created with Inkscape (http://www.inkscape.org/) -->

<svg
   width="15.875mm"
   height="15.875mm"
   viewBox="0 0 15.875 15.875"
   version="1.1"
   id="svg1"
   inkscape:version="1.4.1-rc (d9e8dc1fe0, 2025-03-10)"
   sodipodi:docname="design-icon.svg"
   xmlns:inkscape="http://www.inkscape.org/namespaces/inkscape"
   xmlns:sodipodi="http://sodipodi.sourceforge.net/DTD/sodipodi-0.dtd"
   xmlns="http://www.w3.org/2000/svg"
   xmlns:svg="http://www.w3.org/2000/svg">
  <sodipodi:namedview
     id="namedview1"
     pagecolor="#ffffff"
     bordercolor="#000000"
     borderopacity="0.25"
     inkscape:showpageshadow="2"
     inkscape:pageopacity="0.0"
     inkscape:pagecheckerboard="0"
     inkscape:deskcolor="#d1d1d1"
     inkscape:document-units="mm"
     inkscape:zoom="0.66368547"
     inkscape:cx="-120.53903"
     inkscape:cy="155.94737"
     inkscape:window-width="1033"
     inkscape:window-height="953"
     inkscape:window-x="100"
     inkscape:window-y="32"
     inkscape:window-maximized="0"
     inkscape:current-layer="layer1" />
  <defs
     id="defs1" />
  <g
     inkscape:label="Layer 1"
     inkscape:groupmode="layer"
     id="layer1"
     transform="translate(-136.78958,-107.15625)">
    <rect
       x="136.78958"
       y="107.15625"
       width="15.875"
       height="15.875"
       fill="#f6f6f6"
       id="rect1"
       style="stroke-width:0.264583" />
    <path
       d="m 143.98021,114.34688 c -0.61852,0 -1.24582,0.235 -1.74255,0.6241 -0.49672,0.38912 -0.87815,0.95475 -0.87815,1.61827 v 1.12395 c 0,1.23703 1.00809,2.24237 2.24512,2.24237 h 2.24513 c 1.23703,0 2.24514,-1.00534 2.24514,-2.24237 v -1.12395 c 0,-0.66352 -0.38145,-1.22915 -0.87817,-1.61827 -0.49673,-0.3891 -1.12403,-0.6241 -1.74252,-0.6241 -0.0982,8e-5 -0.19243,0.0388 -0.26236,0.10771 l -0.48327,0.48602 -0.48604,-0.48602 c -0.0699,-0.069 -0.16414,-0.10763 -0.26233,-0.10771 z m -0.11599,0.78703 0.59925,0.59926 c 0.0701,0.0697 0.16492,0.10877 0.26374,0.10877 0.0988,0 0.19362,-0.0391 0.26371,-0.10877 l 0.59925,-0.59926 c 0.39135,0.029 0.83196,0.16687 1.16539,0.42804 0.3665,0.2871 0.59097,0.65458 0.59097,1.0273 v 1.12395 c 0,0.83548 -0.6613,1.494 -1.49677,1.494 h -2.24513 c -0.83547,0 -1.49674,-0.65852 -1.49674,-1.494 v -1.12395 c 0,-0.37272 0.22447,-0.7402 0.59097,-1.0273 0.3334,-0.26117 0.77401,-0.39901 1.16536,-0.42804 z m 0.86159,-4.90172 c -0.9253,0 -1.68177,0.75647 -1.68177,1.68177 0,0.92532 0.75647,1.68455 1.68177,1.68455 0.92532,0 1.68455,-0.75923 1.68455,-1.68455 0,-0.9253 -0.75923,-1.68177 -1.68455,-1.68177 z m 0,0.74562 c 0.52096,0 0.93617,0.41521 0.93617,0.93615 0,0.52096 -0.41521,0.93617 -0.93617,0.93617 -0.52094,0 -0.9334,-0.41521 -0.9334,-0.93617 0,-0.52094 0.41246,-0.93615 0.9334,-0.93615 z"
       fill="#303030"
       id="path1"
       style="stroke-width:0.264583" />
    <path
       d="m 146.74728,114.71418 c -0.067,-0.001 -0.13309,0.0155 -0.1914,0.0486 -0.0583,0.033 -0.10663,0.0811 -0.13999,0.13922 l -0.64344,1.08252 -0.78153,-0.7815 c -0.0344,-0.0365 -0.0758,-0.0657 -0.12168,-0.0858 -0.0459,-0.0202 -0.0954,-0.0309 -0.14552,-0.0316 -0.0501,-6.6e-4 -0.0999,0.009 -0.14629,0.0277 -0.0464,0.0189 -0.0886,0.047 -0.12393,0.0825 -0.0354,0.0355 -0.0632,0.0778 -0.0819,0.12435 -0.0187,0.0465 -0.0278,0.0963 -0.0269,0.14645 9.3e-4,0.0501 0.0119,0.0996 0.0323,0.14536 0.0204,0.0458 0.0498,0.087 0.0865,0.12121 l 1.12117,1.12119 c 0.0404,0.0401 0.0894,0.0705 0.14328,0.0888 0.0539,0.0183 0.11123,0.0241 0.16766,0.0169 0.0565,-0.007 0.11052,-0.0272 0.15809,-0.0584 0.0476,-0.0312 0.0874,-0.0729 0.11644,-0.12187 l 0.88922,-1.49399 c 0.0349,-0.0562 0.0544,-0.12076 0.0562,-0.18698 0.002,-0.0662 -0.0139,-0.13171 -0.0456,-0.18984 -0.0318,-0.0581 -0.0783,-0.10679 -0.13505,-0.14102 -0.0567,-0.0342 -0.12147,-0.0528 -0.18766,-0.0538 z"
       fill="#303030"
       id="path2"
       style="stroke-width:0.264583" />
    <path
       d="m 142.69608,114.71693 c -0.0648,0.003 -0.12777,0.0232 -0.18256,0.058 -0.0548,0.0348 -0.0996,0.0834 -0.12996,0.14074 -0.0303,0.0574 -0.0453,0.1217 -0.0433,0.18661 0.002,0.0649 0.0209,0.12813 0.0548,0.18354 l 0.88923,1.49399 c 0.029,0.049 0.0688,0.0906 0.11642,0.12187 0.0476,0.0312 0.10163,0.0512 0.15809,0.0584 0.0564,0.007 0.1138,10e-4 0.16767,-0.0169 0.0539,-0.0183 0.10289,-0.0487 0.14327,-0.0888 l 1.12117,-1.12117 c 0.0366,-0.0342 0.0661,-0.0754 0.0865,-0.12123 0.0204,-0.0458 0.0314,-0.0952 0.0323,-0.14536 9.2e-4,-0.0501 -0.008,-0.0999 -0.0269,-0.14645 -0.0187,-0.0465 -0.0466,-0.0888 -0.0819,-0.12435 -0.0353,-0.0355 -0.0775,-0.0636 -0.12393,-0.0825 -0.0464,-0.019 -0.0962,-0.0284 -0.14629,-0.0277 -0.0501,6.6e-4 -0.0996,0.0114 -0.14552,0.0316 -0.0459,0.0202 -0.0873,0.0493 -0.12168,0.0858 l -0.78152,0.78152 -0.64344,-1.08254 c -0.0346,-0.0593 -0.0849,-0.1079 -0.14526,-0.14055 -0.0604,-0.0326 -0.12861,-0.048 -0.19717,-0.0445 z m 3.15368,2.62069 c -0.0992,0 -0.19442,0.0394 -0.26459,0.10962 -0.0702,0.0702 -0.10959,0.16534 -0.10959,0.26458 0,0.0992 0.0394,0.19442 0.10959,0.26459 0.0702,0.0702 0.16534,0.10962 0.26459,0.10962 h 0.37282 c 0.0992,0 0.19442,-0.0394 0.26458,-0.10962 0.0702,-0.0702 0.10959,-0.16534 0.10959,-0.26459 0,-0.0992 -0.0394,-0.19441 -0.10959,-0.26458 -0.0702,-0.0702 -0.16536,-0.10962 -0.26458,-0.10962 z"
       fill="#303030"
       id="path3"
       style="stroke-width:0.264583" />
  </g>
</svg>
