<?xml version="1.0" encoding="UTF-8" standalone="no"?>
<!-- Created with Inkscape (http://www.inkscape.org/) -->

<svg
   width="15.875mm"
   height="15.875mm"
   viewBox="0 0 15.875 15.875"
   version="1.1"
   id="svg1"
   inkscape:version="1.4.1-rc (d9e8dc1fe0, 2025-03-10)"
   sodipodi:docname="web.svg"
   xmlns:inkscape="http://www.inkscape.org/namespaces/inkscape"
   xmlns:sodipodi="http://sodipodi.sourceforge.net/DTD/sodipodi-0.dtd"
   xmlns="http://www.w3.org/2000/svg"
   xmlns:svg="http://www.w3.org/2000/svg">
  <sodipodi:namedview
     id="namedview1"
     pagecolor="#ffffff"
     bordercolor="#000000"
     borderopacity="0.25"
     inkscape:showpageshadow="2"
     inkscape:pageopacity="0.0"
     inkscape:pagecheckerboard="0"
     inkscape:deskcolor="#d1d1d1"
     inkscape:document-units="mm"
     inkscape:zoom="0.66368547"
     inkscape:cx="-85.884056"
     inkscape:cy="98.691328"
     inkscape:window-width="1033"
     inkscape:window-height="953"
     inkscape:window-x="50"
     inkscape:window-y="32"
     inkscape:window-maximized="0"
     inkscape:current-layer="layer1" />
  <defs
     id="defs1" />
  <g
     inkscape:label="Layer 1"
     inkscape:groupmode="layer"
     id="layer1"
     transform="translate(-127.52917,-122.50208)">
    <rect
       x="127.52917"
       y="122.50208"
       width="15.875"
       height="15.875"
       fill="#f6f6f6"
       id="rect1"
       style="stroke-width:0.264583" />
    <path
       d="m 132.65422,130.0353 c -1.01721,0 -1.85491,0.8676 -1.85491,1.88479 v 1.49595 c 0,1.01719 0.8377,1.88484 1.85491,1.88484 h 3.38072 c 1.01722,0 1.85491,-0.86765 1.85491,-1.88484 v -1.49595 c 0,-1.01719 -0.83769,-1.88479 -1.85491,-1.88479 z m 0,0.77785 h 3.38072 c 0.62828,0 1.10696,0.47866 1.10696,1.10694 v 1.49595 c 0,0.62826 -0.47868,1.13686 -1.10696,1.13686 h -3.38072 c -0.62827,0 -1.10696,-0.5086 -1.10696,-1.13686 v -1.49595 c 0,-0.62828 0.47869,-1.10694 1.10696,-1.10694 z"
       fill="#303030"
       id="path1"
       style="stroke-width:0.264583" />
    <path
       d="m 133.04316,131.53118 c -0.11967,0.03 -0.20944,0.0598 -0.26926,0.1197 l -0.74795,0.74797 c -0.1496,0.1496 -0.1496,0.38891 0,0.53851 l 0.74795,0.74795 c 0.35901,0.35901 0.89754,-0.17947 0.53853,-0.53851 l -0.50861,-0.47871 0.50861,-0.47866 c 0.23934,-0.23934 0.0598,-0.6582 -0.26927,-0.6582 z m 2.60287,0 c -0.32912,0 -0.50861,0.41886 -0.26927,0.6582 l 0.50861,0.47869 -0.50861,0.47865 c -0.32909,0.35902 0.17949,0.89758 0.53853,0.53856 l 0.74793,-0.74797 c 0.14959,-0.1496 0.14959,-0.38892 0,-0.53851 l -0.74793,-0.74795 c -0.0598,-0.0598 -0.14959,-0.11972 -0.26926,-0.11972 z"
       fill="#303030"
       id="path2"
       style="stroke-width:0.264583" />
    <path
       d="m 134.15013,125.57747 c -1.01722,0 -1.85492,0.8377 -1.85492,1.85492 v 2.99177 c 0,0.50864 0.74795,0.50864 0.74795,0 v -2.99177 c 0,-0.62828 0.47869,-1.13687 1.10697,-1.13687 h 4.12866 c 0.62828,0 1.10696,0.50859 1.10696,1.13687 v 4.48767 c 0,0.62828 -0.47868,1.13692 -1.10696,1.13692 h -0.74795 c -0.50861,0 -0.50861,0.74792 0,0.74792 h 0.74795 c 1.01722,0 1.85491,-0.86762 1.85491,-1.88484 v -4.48767 c 0,-1.01722 -0.83769,-1.85492 -1.85491,-1.85492 z"
       fill="#303030"
       id="path3"
       style="stroke-width:0.264583" />
    <path
       d="m 134.1501,127.04342 c -0.47868,0 -0.47868,0.74798 0,0.74798 h 0.38894 c 0.47868,0 0.47868,-0.74798 0,-0.74798 z m 1.88484,0 c -0.50861,0 -0.50861,0.74798 0,0.74798 h 2.24385 c 0.47868,0 0.47868,-0.74798 0,-0.74798 z m 1.85491,1.4959 c -0.47868,0 -0.47868,0.74795 0,0.74795 h 0.38894 c 0.47868,0 0.47868,-0.74795 0,-0.74795 z m -2.9918,0 c -0.47868,0 -0.47868,0.74795 0,0.74795 h 1.4959 c 0.50861,0 0.50861,-0.74795 0,-0.74795 z m -0.38891,2.99183 c -0.17952,0.03 -0.29919,0.1496 -0.32912,0.29917 l -0.38893,1.4959 c -0.1795,0.50861 0.62828,0.718 0.71805,0.17949 l 0.38891,-1.4959 c 0.0598,-0.23934 -0.11967,-0.47866 -0.38891,-0.47866 z"
       fill="#303030"
       id="path4"
       style="stroke-width:0.264583" />
  </g>
</svg>
